<svg width="28" height="28" viewBox="0 0 28 28" fill="none" xmlns="http://www.w3.org/2000/svg">
<path d="M18.9172 24.2609V22.0015C18.9172 20.8031 18.4411 19.6537 17.5937 18.8063C16.7462 17.9589 15.5969 17.4828 14.3984 17.4828H7.62031C6.42187 17.4828 5.2725 17.9589 4.42507 18.8063C3.57764 19.6537 3.10156 20.8031 3.10156 22.0015V24.2609" stroke="#9D0C0F" stroke-width="2.25938" stroke-linecap="round" stroke-linejoin="round"/>
<path d="M11.0109 12.964C13.5066 12.964 15.5297 10.9409 15.5297 8.44529C15.5297 5.94965 13.5066 3.92654 11.0109 3.92654C8.5153 3.92654 6.49219 5.94965 6.49219 8.44529C6.49219 10.9409 8.5153 12.964 11.0109 12.964Z" stroke="#9D0C0F" stroke-width="2.25938" stroke-linecap="round" stroke-linejoin="round"/>
<path d="M22.3066 9.57497V16.3531" stroke="#9D0C0F" stroke-width="2.25938" stroke-linecap="round" stroke-linejoin="round"/>
<path d="M25.6961 12.964H18.918" stroke="#9D0C0F" stroke-width="2.25938" stroke-linecap="round" stroke-linejoin="round"/>
</svg>
