<svg width="28" height="28" viewBox="0 0 28 28" fill="none" xmlns="http://www.w3.org/2000/svg">
<path d="M20.7777 9.57498C22.6495 9.57498 24.1668 8.05764 24.1668 6.18591C24.1668 4.31419 22.6495 2.79685 20.7777 2.79685C18.906 2.79685 17.3887 4.31419 17.3887 6.18591C17.3887 8.05764 18.906 9.57498 20.7777 9.57498Z" stroke="#9D0C0F" stroke-width="2.25938" stroke-linecap="round" stroke-linejoin="round"/>
<path d="M7.22109 17.4828C9.09282 17.4828 10.6102 15.9655 10.6102 14.0937C10.6102 12.222 9.09282 10.7047 7.22109 10.7047C5.34937 10.7047 3.83203 12.222 3.83203 14.0937C3.83203 15.9655 5.34937 17.4828 7.22109 17.4828Z" stroke="#9D0C0F" stroke-width="2.25938" stroke-linecap="round" stroke-linejoin="round"/>
<path d="M20.7777 25.3906C22.6495 25.3906 24.1668 23.8733 24.1668 22.0015C24.1668 20.1298 22.6495 18.6125 20.7777 18.6125C18.906 18.6125 17.3887 20.1298 17.3887 22.0015C17.3887 23.8733 18.906 25.3906 20.7777 25.3906Z" stroke="#9D0C0F" stroke-width="2.25938" stroke-linecap="round" stroke-linejoin="round"/>
<path d="M10.1465 15.7996L17.8623 20.2957" stroke="#9D0C0F" stroke-width="2.25938" stroke-linecap="round" stroke-linejoin="round"/>
<path d="M17.851 7.89174L10.1465 12.3879" stroke="#9D0C0F" stroke-width="2.25938" stroke-linecap="round" stroke-linejoin="round"/>
</svg>
