<svg width="32" height="32" viewBox="0 0 32 32" fill="none" xmlns="http://www.w3.org/2000/svg">
<path d="M20.0007 2.66666H8.00065C7.29341 2.66666 6.61513 2.94761 6.11503 3.4477C5.61494 3.9478 5.33398 4.62608 5.33398 5.33332V26.6667C5.33398 27.3739 5.61494 28.0522 6.11503 28.5523C6.61513 29.0524 7.29341 29.3333 8.00065 29.3333H24.0007C24.7079 29.3333 25.3862 29.0524 25.8863 28.5523C26.3864 28.0522 26.6673 27.3739 26.6673 26.6667V9.33332L20.0007 2.66666Z" stroke="#9D0C0F" stroke-width="2.66667" stroke-linecap="round" stroke-linejoin="round"/>
<path d="M18.666 2.66666V7.99999C18.666 8.70723 18.947 9.38551 19.4471 9.88561C19.9472 10.3857 20.6254 10.6667 21.3327 10.6667H26.666" stroke="#9D0C0F" stroke-width="2.66667" stroke-linecap="round" stroke-linejoin="round"/>
<path d="M13.3327 18.6667C14.8054 18.6667 15.9993 17.4728 15.9993 16C15.9993 14.5273 14.8054 13.3333 13.3327 13.3333C11.8599 13.3333 10.666 14.5273 10.666 16C10.666 17.4728 11.8599 18.6667 13.3327 18.6667Z" stroke="#9D0C0F" stroke-width="2.66667" stroke-linecap="round" stroke-linejoin="round"/>
<path d="M26.6667 22.6667L24.9387 20.9387C24.3361 20.3362 23.5188 19.9977 22.6667 19.9977C21.8145 19.9977 20.9973 20.3362 20.3947 20.9387L12 29.3333" stroke="#9D0C0F" stroke-width="2.66667" stroke-linecap="round" stroke-linejoin="round"/>
</svg>
