<svg width="45" height="31" viewBox="0 0 45 31" fill="none" xmlns="http://www.w3.org/2000/svg">
<path d="M13.6789 24.1792C13.3058 24.5076 12.8729 24.8956 12.3804 25.3434C11.8879 25.7762 11.3655 26.2314 10.8133 26.709C10.276 27.1866 9.71626 27.6642 9.13418 28.1418C8.56702 28.6045 8.01479 29.0224 7.47749 29.3955C6.94019 29.7687 6.43273 30.0672 5.95513 30.291C5.49245 30.5298 5.08947 30.6492 4.74619 30.6492C4.11934 30.6492 3.59696 30.5522 3.17905 30.3582C2.76115 30.1791 2.42533 29.9552 2.17161 29.6866C1.91788 29.403 1.72385 29.1045 1.58953 28.7911C1.4552 28.4627 1.35072 28.1567 1.2761 27.8732C1.0373 26.9329 0.917895 25.8732 0.917895 24.6941C0.917895 23.1121 1.08953 21.4106 1.43281 19.5897C1.77609 17.7539 2.17161 15.8734 2.61936 13.948C2.72384 13.4853 2.86562 12.963 3.04473 12.3809C3.22383 11.7988 3.42532 11.1869 3.64919 10.5451C3.87307 9.90331 4.11187 9.25407 4.3656 8.59736C4.61933 7.94066 4.86559 7.30634 5.10439 6.69441C5.67155 5.24667 6.28348 3.76162 6.94019 2.23926C7.19391 2.06016 7.47749 1.88852 7.79092 1.72434C8.05957 1.57509 8.373 1.41838 8.7312 1.2542C9.10433 1.0751 9.50731 0.90346 9.94014 0.739283C10.4924 0.530331 11.0222 0.38108 11.5297 0.291529C12.052 0.201979 12.5893 0.142278 13.1416 0.112428C13.2311 0.112428 13.3207 0.11989 13.4102 0.134815C13.5595 0.164666 13.7162 0.231829 13.8804 0.336305C13.955 0.396005 14.0968 0.515406 14.3057 0.694508C14.5147 0.858684 14.761 1.05271 15.0445 1.27659C15.3281 1.48554 15.6191 1.70195 15.9177 1.92583C16.2311 2.13478 16.5147 2.31388 16.7684 2.46314C17.052 2.62731 17.3057 2.76164 17.5296 2.86611C17.7684 2.97059 17.9699 3.05268 18.134 3.11238C18.4624 3.187 18.9848 3.26163 19.7012 3.33626C20.4176 3.41088 21.4549 3.44819 22.8131 3.44819C24.1265 3.44819 25.1488 3.41088 25.8802 3.33626C26.6264 3.26163 27.1563 3.187 27.4697 3.11238C27.6339 3.05268 27.8354 2.97059 28.0742 2.86611C28.313 2.74671 28.5667 2.61239 28.8354 2.46314C29.0742 2.29896 29.3428 2.11986 29.6413 1.92583C29.9398 1.71688 30.2234 1.51539 30.492 1.32136C30.7607 1.11241 30.9995 0.925847 31.2084 0.761671C31.4323 0.582569 31.5965 0.440781 31.701 0.336305C31.8353 0.246754 31.9995 0.172128 32.1935 0.112428C32.2681 0.0825775 32.3502 0.0601898 32.4398 0.0452647C32.992 0.104965 33.5218 0.179591 34.0293 0.269142C34.5517 0.343767 35.1039 0.507944 35.686 0.761671C36.1039 0.925847 36.4919 1.09002 36.8501 1.2542C37.2233 1.40345 37.5367 1.5527 37.7904 1.70195C38.0889 1.86613 38.365 2.03031 38.6188 2.19448C39.2755 3.73177 39.8949 5.22428 40.477 6.67202C40.7158 7.28395 40.962 7.91827 41.2157 8.57498C41.4695 9.23168 41.7083 9.88093 41.9322 10.5227C42.156 11.1645 42.3575 11.7764 42.5366 12.3585C42.7306 12.9257 42.8799 13.4406 42.9844 13.9032C43.4321 15.8435 43.8276 17.7315 44.1709 19.5673C44.5142 21.3882 44.6858 23.0971 44.6858 24.6941C44.6858 25.8284 44.5739 26.8657 44.35 27.806C44.2754 28.0896 44.1709 28.3955 44.0366 28.7239C43.9172 29.0373 43.7306 29.3358 43.4769 29.6194C43.2232 29.8881 42.8874 30.1119 42.4695 30.291C42.0665 30.4851 41.5441 30.5821 40.9023 30.5821C40.559 30.5821 40.1486 30.4701 39.671 30.2463C39.2083 30.0224 38.7083 29.7239 38.171 29.3508C37.6337 28.9776 37.074 28.5597 36.4919 28.097C35.9248 27.6344 35.3651 27.1642 34.8129 26.6866C34.2756 26.209 33.7606 25.7538 33.2681 25.321C32.7756 24.8732 32.3428 24.4852 31.9696 24.1568C31.4472 23.7091 30.9099 23.3434 30.3577 23.0598C29.8055 22.7762 29.1786 22.5598 28.4771 22.4106C27.7757 22.2613 26.9697 22.1643 26.0593 22.1195C25.1488 22.0598 24.0668 22.03 22.8131 22.03C21.5593 22.03 20.4698 22.0598 19.5445 22.1195C18.634 22.1792 17.8281 22.2912 17.1266 22.4553C16.4251 22.6046 15.7982 22.821 15.246 23.1046C14.7087 23.3732 14.1863 23.7314 13.6789 24.1792ZM19.9698 9.6272C19.9698 10.0153 20.0444 10.3809 20.1937 10.7242C20.343 11.0675 20.5444 11.3734 20.7982 11.6421C21.0668 11.8958 21.3728 12.0973 21.7161 12.2466C22.0593 12.3958 22.425 12.4704 22.8131 12.4704C23.1862 12.4704 23.5444 12.3958 23.8877 12.2466C24.2309 12.0973 24.5295 11.8958 24.7832 11.6421C25.0518 11.3734 25.2608 11.0675 25.41 10.7242C25.5593 10.3809 25.6339 10.0153 25.6339 9.6272C25.6339 9.22422 25.5593 8.85109 25.41 8.50781C25.2608 8.16454 25.0518 7.86603 24.7832 7.61231C24.5295 7.35858 24.2309 7.16455 23.8877 7.03023C23.5444 6.88097 23.1862 6.80635 22.8131 6.80635C22.425 6.80635 22.0593 6.88097 21.7161 7.03023C21.3728 7.16455 21.0668 7.35858 20.7982 7.61231C20.5444 7.86603 20.343 8.16454 20.1937 8.50781C20.0444 8.85109 19.9698 9.22422 19.9698 9.6272Z" fill="#9D0C0F"/>
</svg>
