<svg width="26" height="42" viewBox="0 0 26 42" fill="none" xmlns="http://www.w3.org/2000/svg">
<path d="M25.8252 39.5049H24.6348V41.0322H1.79199V39.5049H0.197266V0.782227H25.8252V39.5049ZM25.0391 38.7412V1.32129H0.848633V38.7412H25.0391ZM22.2988 23.5801H3.61133V2.91602H22.2988V23.5801ZM21.8047 24.5908H19.7383V24.0068H21.8047V24.5908ZM16.2568 29.1055H3.88086V28.4541H16.2568V29.1055ZM16.2568 31.6436H3.88086V31.0146H16.2568V31.6436ZM16.2568 34.2266H3.88086V33.5303H16.2568V34.2266ZM16.2568 36.7422H3.88086V36.1133H16.2568V36.7422ZM21.5801 7.85742V3.34277H4.15039V7.85742H21.5801ZM21.5801 11.4062V8.41895H4.15039V11.4062H21.5801ZM21.5801 13.877V11.9678H4.15039V13.877H21.5801ZM21.5801 17.9199V14.5732H4.15039V17.9199H21.5801ZM21.5801 22.9961V18.5264H4.15039V22.9961H21.5801ZM20.3447 6.68945H17.2227V5.9707H20.3447V6.68945ZM20.4121 5.63379H16.2793V6.08301H9.42871V5.63379H5.20605V4.48828H20.4121V5.63379ZM8.70996 6.68945H7.51953V6.08301H8.70996V6.68945ZM22.3887 27.4209C22.3887 28.529 21.8421 29.083 20.749 29.083C19.611 29.083 19.042 28.529 19.042 27.4209C19.042 26.3128 19.611 25.7588 20.749 25.7588C21.8421 25.7588 22.3887 26.3128 22.3887 27.4209Z" fill="#9D0C0F"/>
</svg>
