<svg width="34" height="34" viewBox="0 0 34 34" fill="none" xmlns="http://www.w3.org/2000/svg">
<path d="M11.2061 29.8799C11.2061 30.389 11.112 30.8649 10.9238 31.3076C10.7467 31.7614 10.4977 32.1543 10.1768 32.4863C9.86686 32.8184 9.50163 33.0785 9.08105 33.2666C8.66048 33.4548 8.21224 33.5488 7.73633 33.5488C7.24935 33.5488 6.79557 33.4548 6.375 33.2666C5.95443 33.0785 5.58919 32.8184 5.2793 32.4863C4.9694 32.1543 4.72038 31.7614 4.53223 31.3076C4.35514 30.8649 4.2666 30.389 4.2666 29.8799V22.5752C4.2666 22.0661 4.35514 21.5902 4.53223 21.1475C4.72038 20.6937 4.9694 20.3008 5.2793 19.9688C5.58919 19.6367 5.95443 19.3766 6.375 19.1885C6.79557 19.0003 7.24935 18.9062 7.73633 18.9062C8.21224 18.9062 8.66048 19.0003 9.08105 19.1885C9.50163 19.3766 9.86686 19.6367 10.1768 19.9688C10.4977 20.3008 10.7467 20.6937 10.9238 21.1475C11.112 21.5902 11.2061 22.0661 11.2061 22.5752V29.8799ZM29.6006 29.8799C29.6006 30.389 29.5065 30.8649 29.3184 31.3076C29.1413 31.7614 28.8923 32.1543 28.5713 32.4863C28.2614 32.8184 27.8962 33.0785 27.4756 33.2666C27.055 33.4548 26.6068 33.5488 26.1309 33.5488C25.6439 33.5488 25.1901 33.4548 24.7695 33.2666C24.36 33.0785 23.9948 32.8184 23.6738 32.4863C23.3639 32.1543 23.1204 31.7614 22.9434 31.3076C22.7663 30.8649 22.6777 30.389 22.6777 29.8799V22.5752C22.6777 22.0661 22.7663 21.5902 22.9434 21.1475C23.1204 20.6937 23.3639 20.3008 23.6738 19.9688C23.9948 19.6367 24.36 19.3766 24.7695 19.1885C25.1901 19.0003 25.6439 18.9062 26.1309 18.9062C26.6068 18.9062 27.055 19.0003 27.4756 19.1885C27.8962 19.3766 28.2614 19.6367 28.5713 19.9688C28.8923 20.3008 29.1413 20.6937 29.3184 21.1475C29.5065 21.5902 29.6006 22.0661 29.6006 22.5752V29.8799ZM3.2207 25.7793V26.1943C3.2207 26.3936 3.17643 26.5651 3.08789 26.709C2.99935 26.8418 2.8776 26.9525 2.72266 27.041C2.57878 27.1185 2.41276 27.1794 2.22461 27.2236C2.03646 27.2568 1.84277 27.2734 1.64355 27.2734C1.26725 27.2734 0.940755 27.1351 0.664062 26.8584C0.398438 26.5817 0.265625 26.2331 0.265625 25.8125V17.5615C0.265625 15.9567 0.464844 14.4128 0.863281 12.9297C1.26172 11.4466 1.82064 10.0632 2.54004 8.7793C3.25944 7.48438 4.12272 6.3112 5.12988 5.25977C6.14811 4.19727 7.27148 3.28971 8.5 2.53711C9.73958 1.78451 11.0677 1.20345 12.4844 0.793945C13.901 0.373372 15.3786 0.163086 16.917 0.163086C18.4554 0.163086 19.9385 0.373372 21.3662 0.793945C22.7939 1.20345 24.1221 1.78451 25.3506 2.53711C26.5902 3.28971 27.7135 4.19727 28.7207 5.25977C29.7389 6.3112 30.6077 7.48438 31.3271 8.7793C32.0576 10.0632 32.6165 11.4466 33.0039 12.9297C33.4023 14.4128 33.6016 15.9567 33.6016 17.5615V25.8125C33.6016 26.2331 33.4521 26.5817 33.1533 26.8584C32.8656 27.1351 32.528 27.2734 32.1406 27.2734C31.9525 27.2734 31.7699 27.2402 31.5928 27.1738C31.4157 27.0964 31.2552 26.9912 31.1113 26.8584C30.9674 26.7256 30.8512 26.5762 30.7627 26.4102C30.6852 26.2331 30.6465 26.0449 30.6465 25.8457V17.7441C30.6465 16.416 30.486 15.1322 30.165 13.8926C29.8441 12.6419 29.3848 11.4743 28.7871 10.3896C28.2005 9.29395 27.4922 8.29785 26.6621 7.40137C25.832 6.50488 24.9079 5.73568 23.8896 5.09375C22.8714 4.44076 21.7757 3.93717 20.6025 3.58301C19.4294 3.22884 18.2008 3.05176 16.917 3.05176C15.6442 3.05176 14.4212 3.23438 13.248 3.59961C12.0749 3.96484 10.9792 4.47396 9.96094 5.12695C8.95378 5.77995 8.03516 6.56576 7.20508 7.48438C6.375 8.40299 5.66113 9.41016 5.06348 10.5059C4.47689 11.6016 4.02311 12.7747 3.70215 14.0254C3.38118 15.276 3.2207 16.5654 3.2207 17.8936V25.7793Z" fill="#9D0C0F"/>
</svg>
